<svg width="261" height="59" viewBox="0 0 261 59" fill="none" xmlns="http://www.w3.org/2000/svg">
<g filter="url(#filter0_i_55_6)">
<path d="M18.125 17.8523H20.285V15.6923H31.085V17.8523H33.245V37.2923H31.085V41.6123H28.925V43.7723H26.765V45.9323H22.445V48.0923H5.16497V45.9323H3.00497V43.7723H0.844971V35.1323H3.00497V32.9723H7.32497V35.1323H15.965V32.9723H18.125V17.8523ZM5.16497 2.73226H7.32497V0.572266H31.085V2.73226H33.245V11.3723H31.085V13.5323H7.32497V11.3723H5.16497V2.73226ZM65.2962 2.73226H67.4562V0.572266H80.4162V2.73226H82.5762V9.21226H80.4162V13.5323H78.2562V17.8523H76.0962V20.0123H73.9362V22.1723H71.7762V26.4923H73.9362V28.6523H76.0962V30.8123H78.2562V35.1323H80.4162V39.4523H82.5762V45.9323H80.4162V48.0923H67.4562V45.9323H65.2962V41.6123H63.1362V37.2923H60.9762V32.9723H58.8162V15.6923H60.9762V11.3723H63.1362V7.05226H65.2962V2.73226ZM41.5362 2.73226H43.6962V0.572266H54.4962V2.73226H56.6562V45.9323H54.4962V48.0923H43.6962V45.9323H41.5362V2.73226ZM86.5793 13.5323H88.7393V11.3723H99.5393V13.5323H101.699V24.3323H103.859V30.8123H106.019V32.9723H108.179V35.1323H118.979V37.2923H121.139V41.6123H118.979V43.7723H116.819V45.9323H114.659V48.0923H112.499V50.2523H110.339V52.4123H108.179V54.5723H106.019V56.7323H101.699V58.8923H88.7393V56.7323H86.5793V50.2523H88.7393V48.0923H93.0593V45.9323H97.3793V43.7723H95.2193V41.6123H93.0593V37.2923H90.8993V32.9723H88.7393V28.6523H86.5793V13.5323ZM112.499 13.5323H114.659V11.3723H125.459V13.5323H127.619V28.6523H125.459V30.8123H123.299V32.9723H112.499V30.8123H110.339V24.3323H112.499V13.5323ZM133.755 2.73226H135.915V0.572266H166.155V2.73226H168.315V11.3723H166.155V13.5323H148.875V35.1323H166.155V37.2923H168.315V45.9323H166.155V48.0923H135.915V45.9323H133.755V2.73226ZM151.035 28.6523V20.0123H153.195V17.8523H161.835V20.0123H163.995V28.6523H161.835V30.8123H153.195V28.6523H151.035ZM174.474 13.5323H176.634V11.3723H187.434V13.5323H189.594V35.1323H191.754V37.2923H193.914V39.4523H196.074V45.9323H193.914V48.0923H180.954V45.9323H178.794V43.7723H176.634V39.4523H174.474V13.5323ZM198.234 13.5323H200.394V11.3723H211.194V13.5323H213.354V45.9323H211.194V48.0923H200.394V45.9323H198.234V13.5323ZM238.957 13.5323H241.117V11.3723H254.077V13.5323H256.237V15.6923H258.397V20.0123H260.557V45.9323H258.397V48.0923H247.597V45.9323H245.437V24.3323H243.277V22.1723H241.117V20.0123H238.957V13.5323ZM221.677 13.5323H223.837V11.3723H234.637V13.5323H236.797V45.9323H234.637V48.0923H223.837V45.9323H221.677V13.5323Z" fill="#5389FF"/>
</g>
<defs>
<filter id="filter0_i_55_6" x="0.844971" y="0.572266" width="259.712" height="62.3201" filterUnits="userSpaceOnUse" color-interpolation-filters="sRGB">
<feFlood flood-opacity="0" result="BackgroundImageFix"/>
<feBlend mode="normal" in="SourceGraphic" in2="BackgroundImageFix" result="shape"/>
<feColorMatrix in="SourceAlpha" type="matrix" values="0 0 0 0 0 0 0 0 0 0 0 0 0 0 0 0 0 0 127 0" result="hardAlpha"/>
<feOffset dy="4"/>
<feGaussianBlur stdDeviation="2"/>
<feComposite in2="hardAlpha" operator="arithmetic" k2="-1" k3="1"/>
<feColorMatrix type="matrix" values="0 0 0 0 0 0 0 0 0 0 0 0 0 0 0 0 0 0 0.25 0"/>
<feBlend mode="normal" in2="shape" result="effect1_innerShadow_55_6"/>
</filter>
</defs>
</svg>
